<svg xmlns="http://www.w3.org/2000/svg" xmlns:xlink="http://www.w3.org/1999/xlink" width="517" zoomAndPan="magnify" viewBox="0 0 387.75 89.249998" height="119" preserveAspectRatio="xMidYMid meet" version="1.0"><defs><g/><clipPath id="463f1363f1"><path d="M 1.492188 10.152344 L 66.199219 10.152344 L 66.199219 74.859375 L 1.492188 74.859375 Z M 1.492188 10.152344 " clip-rule="nonzero"/></clipPath></defs><g fill="#1e1e1e" fill-opacity="1"><g transform="translate(55.684026, 59.145967)"><g><path d="M 27.359375 -17.828125 C 27.910156 -17.828125 28.28125 -17.707031 28.46875 -17.46875 C 28.664062 -17.226562 28.765625 -16.878906 28.765625 -16.421875 L 28.765625 -9.375 C 28.671875 -7.625 28.203125 -6.109375 27.359375 -4.828125 C 26.515625 -3.554688 25.441406 -2.515625 24.140625 -1.703125 C 22.847656 -0.890625 21.460938 -0.28125 19.984375 0.125 C 18.515625 0.53125 17.085938 0.734375 15.703125 0.734375 C 14.273438 0.734375 12.796875 0.535156 11.265625 0.140625 C 9.742188 -0.242188 8.328125 -0.847656 7.015625 -1.671875 C 5.703125 -2.503906 4.640625 -3.59375 3.828125 -4.9375 C 3.023438 -6.28125 2.625 -7.90625 2.625 -9.8125 L 2.625 -21.765625 C 2.625 -23.679688 3.023438 -25.332031 3.828125 -26.71875 C 4.640625 -28.113281 5.703125 -29.25 7.015625 -30.125 C 8.328125 -31 9.742188 -31.644531 11.265625 -32.0625 C 12.796875 -32.488281 14.273438 -32.703125 15.703125 -32.703125 C 17.222656 -32.703125 18.75 -32.484375 20.28125 -32.046875 C 21.820312 -31.609375 23.234375 -30.96875 24.515625 -30.125 C 25.796875 -29.28125 26.820312 -28.234375 27.59375 -26.984375 C 28.375 -25.742188 28.765625 -24.3125 28.765625 -22.6875 C 28.765625 -22.101562 28.664062 -21.726562 28.46875 -21.5625 C 28.28125 -21.40625 27.910156 -21.328125 27.359375 -21.328125 L 22.640625 -21.328125 C 21.960938 -21.328125 21.59375 -21.519531 21.53125 -21.90625 C 21.46875 -22.300781 21.367188 -22.660156 21.234375 -22.984375 C 20.972656 -23.734375 20.390625 -24.414062 19.484375 -25.03125 C 18.578125 -25.644531 17.316406 -25.953125 15.703125 -25.953125 C 14.109375 -25.953125 12.816406 -25.460938 11.828125 -24.484375 C 10.835938 -23.515625 10.34375 -22.253906 10.34375 -20.703125 L 10.34375 -10.9375 C 10.34375 -9.375 10.835938 -8.164062 11.828125 -7.3125 C 12.816406 -6.457031 14.109375 -6.03125 15.703125 -6.03125 C 17.285156 -6.03125 18.578125 -6.425781 19.578125 -7.21875 C 20.585938 -8.007812 21.09375 -9.34375 21.09375 -11.21875 L 16.71875 -11.21875 C 16.164062 -11.21875 15.789062 -11.347656 15.59375 -11.609375 C 15.40625 -11.867188 15.3125 -12.210938 15.3125 -12.640625 L 15.3125 -16.421875 C 15.3125 -16.878906 15.40625 -17.226562 15.59375 -17.46875 C 15.789062 -17.707031 16.164062 -17.828125 16.71875 -17.828125 Z M 27.359375 -17.828125 "/></g></g></g><g fill="#1e1e1e" fill-opacity="1"><g transform="translate(87.071735, 59.145967)"><g><path d="M 31.09375 -1.359375 C 31.226562 -1.066406 31.257812 -0.765625 31.1875 -0.453125 C 31.125 -0.148438 30.820312 0 30.28125 0 L 25.171875 0 C 24.648438 0 24.257812 -0.09375 24 -0.28125 C 23.738281 -0.476562 23.515625 -0.867188 23.328125 -1.453125 L 21.96875 -5.296875 L 10.0625 -5.296875 L 8.703125 -1.453125 C 8.503906 -0.867188 8.28125 -0.476562 8.03125 -0.28125 C 7.789062 -0.09375 7.398438 0 6.859375 0 L 1.75 0 C 1.226562 0 0.925781 -0.148438 0.84375 -0.453125 C 0.769531 -0.765625 0.796875 -1.066406 0.921875 -1.359375 L 11.71875 -30.46875 C 11.90625 -30.988281 12.148438 -31.367188 12.453125 -31.609375 C 12.765625 -31.847656 13.179688 -31.96875 13.703125 -31.96875 L 18.375 -31.96875 C 18.914062 -31.96875 19.320312 -31.847656 19.59375 -31.609375 C 19.875 -31.367188 20.128906 -30.988281 20.359375 -30.46875 Z M 16.03125 -22.84375 L 12.390625 -12.09375 L 19.6875 -12.09375 Z M 16.03125 -22.84375 "/></g></g></g><g fill="#1e1e1e" fill-opacity="1"><g transform="translate(116.855984, 59.145967)"><g><path d="M 25.21875 -31.96875 C 25.769531 -31.96875 26.140625 -31.847656 26.328125 -31.609375 C 26.523438 -31.367188 26.625 -31.019531 26.625 -30.5625 L 26.625 -26.53125 C 26.625 -26.113281 26.523438 -25.773438 26.328125 -25.515625 C 26.140625 -25.253906 25.769531 -25.125 25.21875 -25.125 L 17.78125 -25.125 L 17.78125 -1.40625 C 17.78125 -0.851562 17.660156 -0.476562 17.421875 -0.28125 C 17.179688 -0.09375 16.832031 0 16.375 0 L 11.5625 0 C 11.144531 0 10.804688 -0.09375 10.546875 -0.28125 C 10.285156 -0.476562 10.15625 -0.851562 10.15625 -1.40625 L 10.15625 -25.125 L 2.671875 -25.125 C 2.117188 -25.125 1.742188 -25.253906 1.546875 -25.515625 C 1.359375 -25.773438 1.265625 -26.113281 1.265625 -26.53125 L 1.265625 -30.5625 C 1.265625 -31.019531 1.359375 -31.367188 1.546875 -31.609375 C 1.742188 -31.847656 2.117188 -31.96875 2.671875 -31.96875 Z M 25.21875 -31.96875 "/></g></g></g><g fill="#1e1e1e" fill-opacity="1"><g transform="translate(144.74537, 59.145967)"><g><path d="M 28.71875 -10.25 C 28.71875 -8.34375 28.3125 -6.691406 27.5 -5.296875 C 26.695312 -3.898438 25.644531 -2.753906 24.34375 -1.859375 C 23.050781 -0.972656 21.640625 -0.320312 20.109375 0.09375 C 18.585938 0.519531 17.097656 0.734375 15.640625 0.734375 C 14.179688 0.734375 12.695312 0.519531 11.1875 0.09375 C 9.6875 -0.320312 8.285156 -0.972656 6.984375 -1.859375 C 5.691406 -2.753906 4.648438 -3.898438 3.859375 -5.296875 C 3.066406 -6.691406 2.671875 -8.34375 2.671875 -10.25 L 2.671875 -21.71875 C 2.671875 -23.632812 3.066406 -25.285156 3.859375 -26.671875 C 4.648438 -28.066406 5.691406 -29.207031 6.984375 -30.09375 C 8.285156 -30.988281 9.6875 -31.644531 11.1875 -32.0625 C 12.695312 -32.488281 14.179688 -32.703125 15.640625 -32.703125 C 17.097656 -32.703125 18.585938 -32.488281 20.109375 -32.0625 C 21.640625 -31.644531 23.050781 -30.988281 24.34375 -30.09375 C 25.644531 -29.207031 26.695312 -28.066406 27.5 -26.671875 C 28.3125 -25.285156 28.71875 -23.632812 28.71875 -21.71875 Z M 21.09375 -21.046875 C 21.09375 -22.597656 20.585938 -23.800781 19.578125 -24.65625 C 18.578125 -25.519531 17.265625 -25.953125 15.640625 -25.953125 C 14.054688 -25.953125 12.757812 -25.519531 11.75 -24.65625 C 10.75 -23.800781 10.25 -22.597656 10.25 -21.046875 L 10.25 -10.9375 C 10.25 -9.375 10.75 -8.164062 11.75 -7.3125 C 12.757812 -6.457031 14.054688 -6.03125 15.640625 -6.03125 C 17.265625 -6.03125 18.578125 -6.457031 19.578125 -7.3125 C 20.585938 -8.164062 21.09375 -9.375 21.09375 -10.9375 Z M 21.09375 -21.046875 "/></g></g></g><g fill="#1e1e1e" fill-opacity="1"><g transform="translate(176.084496, 59.145967)"><g><path d="M 29.78125 -1.5625 C 30.007812 -1.226562 30.054688 -0.882812 29.921875 -0.53125 C 29.796875 -0.175781 29.507812 0 29.0625 0 L 23.328125 0 C 22.742188 0 22.28125 -0.113281 21.9375 -0.34375 C 21.601562 -0.570312 21.253906 -0.941406 20.890625 -1.453125 L 15.640625 -9.28125 C 15.421875 -9.570312 15.273438 -9.882812 15.203125 -10.21875 C 15.140625 -10.5625 15.109375 -11.078125 15.109375 -11.765625 L 15.109375 -15.640625 C 15.109375 -16.097656 15.207031 -16.445312 15.40625 -16.6875 C 15.601562 -16.9375 15.972656 -17.0625 16.515625 -17.0625 L 17.5 -17.0625 C 18.695312 -17.0625 19.765625 -17.429688 20.703125 -18.171875 C 21.640625 -18.921875 22.109375 -19.863281 22.109375 -21 C 22.109375 -22.257812 21.675781 -23.257812 20.8125 -24 C 19.957031 -24.75 18.898438 -25.125 17.640625 -25.125 L 11.171875 -25.125 L 11.171875 -1.40625 C 11.171875 -0.851562 11.050781 -0.476562 10.8125 -0.28125 C 10.570312 -0.09375 10.222656 0 9.765625 0 L 4.953125 0 C 4.535156 0 4.203125 -0.09375 3.953125 -0.28125 C 3.710938 -0.476562 3.59375 -0.851562 3.59375 -1.40625 L 3.59375 -30.515625 C 3.59375 -30.972656 3.679688 -31.320312 3.859375 -31.5625 C 4.035156 -31.800781 4.398438 -31.921875 4.953125 -31.921875 L 17.203125 -31.921875 C 18.984375 -31.921875 20.457031 -31.804688 21.625 -31.578125 C 22.789062 -31.359375 23.785156 -31.015625 24.609375 -30.546875 C 25.441406 -30.078125 26.195312 -29.5 26.875 -28.8125 C 27.78125 -27.9375 28.472656 -26.832031 28.953125 -25.5 C 29.441406 -24.175781 29.6875 -22.738281 29.6875 -21.1875 C 29.6875 -19.5 29.328125 -17.988281 28.609375 -16.65625 C 27.898438 -15.332031 27.023438 -14.234375 25.984375 -13.359375 C 24.953125 -12.484375 23.9375 -11.867188 22.9375 -11.515625 Z M 29.78125 -1.5625 "/></g></g></g><g fill="#1e1e1e" fill-opacity="1"><g transform="translate(208.443963, 59.145967)"><g><path d="M 27.359375 -17.828125 C 27.910156 -17.828125 28.28125 -17.707031 28.46875 -17.46875 C 28.664062 -17.226562 28.765625 -16.878906 28.765625 -16.421875 L 28.765625 -9.375 C 28.671875 -7.625 28.203125 -6.109375 27.359375 -4.828125 C 26.515625 -3.554688 25.441406 -2.515625 24.140625 -1.703125 C 22.847656 -0.890625 21.460938 -0.28125 19.984375 0.125 C 18.515625 0.53125 17.085938 0.734375 15.703125 0.734375 C 14.273438 0.734375 12.796875 0.535156 11.265625 0.140625 C 9.742188 -0.242188 8.328125 -0.847656 7.015625 -1.671875 C 5.703125 -2.503906 4.640625 -3.59375 3.828125 -4.9375 C 3.023438 -6.28125 2.625 -7.90625 2.625 -9.8125 L 2.625 -21.765625 C 2.625 -23.679688 3.023438 -25.332031 3.828125 -26.71875 C 4.640625 -28.113281 5.703125 -29.25 7.015625 -30.125 C 8.328125 -31 9.742188 -31.644531 11.265625 -32.0625 C 12.796875 -32.488281 14.273438 -32.703125 15.703125 -32.703125 C 17.222656 -32.703125 18.75 -32.484375 20.28125 -32.046875 C 21.820312 -31.609375 23.234375 -30.96875 24.515625 -30.125 C 25.796875 -29.28125 26.820312 -28.234375 27.59375 -26.984375 C 28.375 -25.742188 28.765625 -24.3125 28.765625 -22.6875 C 28.765625 -22.101562 28.664062 -21.726562 28.46875 -21.5625 C 28.28125 -21.40625 27.910156 -21.328125 27.359375 -21.328125 L 22.640625 -21.328125 C 21.960938 -21.328125 21.59375 -21.519531 21.53125 -21.90625 C 21.46875 -22.300781 21.367188 -22.660156 21.234375 -22.984375 C 20.972656 -23.734375 20.390625 -24.414062 19.484375 -25.03125 C 18.578125 -25.644531 17.316406 -25.953125 15.703125 -25.953125 C 14.109375 -25.953125 12.816406 -25.460938 11.828125 -24.484375 C 10.835938 -23.515625 10.34375 -22.253906 10.34375 -20.703125 L 10.34375 -10.9375 C 10.34375 -9.375 10.835938 -8.164062 11.828125 -7.3125 C 12.816406 -6.457031 14.109375 -6.03125 15.703125 -6.03125 C 17.285156 -6.03125 18.578125 -6.425781 19.578125 -7.21875 C 20.585938 -8.007812 21.09375 -9.34375 21.09375 -11.21875 L 16.71875 -11.21875 C 16.164062 -11.21875 15.789062 -11.347656 15.59375 -11.609375 C 15.40625 -11.867188 15.3125 -12.210938 15.3125 -12.640625 L 15.3125 -16.421875 C 15.3125 -16.878906 15.40625 -17.226562 15.59375 -17.46875 C 15.789062 -17.707031 16.164062 -17.828125 16.71875 -17.828125 Z M 27.359375 -17.828125 "/></g></g></g><g fill="#1e1e1e" fill-opacity="1"><g transform="translate(239.831672, 59.145967)"><g><path d="M 29.78125 -1.5625 C 30.007812 -1.226562 30.054688 -0.882812 29.921875 -0.53125 C 29.796875 -0.175781 29.507812 0 29.0625 0 L 23.328125 0 C 22.742188 0 22.28125 -0.113281 21.9375 -0.34375 C 21.601562 -0.570312 21.253906 -0.941406 20.890625 -1.453125 L 15.640625 -9.28125 C 15.421875 -9.570312 15.273438 -9.882812 15.203125 -10.21875 C 15.140625 -10.5625 15.109375 -11.078125 15.109375 -11.765625 L 15.109375 -15.640625 C 15.109375 -16.097656 15.207031 -16.445312 15.40625 -16.6875 C 15.601562 -16.9375 15.972656 -17.0625 16.515625 -17.0625 L 17.5 -17.0625 C 18.695312 -17.0625 19.765625 -17.429688 20.703125 -18.171875 C 21.640625 -18.921875 22.109375 -19.863281 22.109375 -21 C 22.109375 -22.257812 21.675781 -23.257812 20.8125 -24 C 19.957031 -24.75 18.898438 -25.125 17.640625 -25.125 L 11.171875 -25.125 L 11.171875 -1.40625 C 11.171875 -0.851562 11.050781 -0.476562 10.8125 -0.28125 C 10.570312 -0.09375 10.222656 0 9.765625 0 L 4.953125 0 C 4.535156 0 4.203125 -0.09375 3.953125 -0.28125 C 3.710938 -0.476562 3.59375 -0.851562 3.59375 -1.40625 L 3.59375 -30.515625 C 3.59375 -30.972656 3.679688 -31.320312 3.859375 -31.5625 C 4.035156 -31.800781 4.398438 -31.921875 4.953125 -31.921875 L 17.203125 -31.921875 C 18.984375 -31.921875 20.457031 -31.804688 21.625 -31.578125 C 22.789062 -31.359375 23.785156 -31.015625 24.609375 -30.546875 C 25.441406 -30.078125 26.195312 -29.5 26.875 -28.8125 C 27.78125 -27.9375 28.472656 -26.832031 28.953125 -25.5 C 29.441406 -24.175781 29.6875 -22.738281 29.6875 -21.1875 C 29.6875 -19.5 29.328125 -17.988281 28.609375 -16.65625 C 27.898438 -15.332031 27.023438 -14.234375 25.984375 -13.359375 C 24.953125 -12.484375 23.9375 -11.867188 22.9375 -11.515625 Z M 29.78125 -1.5625 "/></g></g></g><g fill="#1e1e1e" fill-opacity="1"><g transform="translate(272.191139, 59.145967)"><g><path d="M 31.09375 -1.359375 C 31.226562 -1.066406 31.257812 -0.765625 31.1875 -0.453125 C 31.125 -0.148438 30.820312 0 30.28125 0 L 25.171875 0 C 24.648438 0 24.257812 -0.09375 24 -0.28125 C 23.738281 -0.476562 23.515625 -0.867188 23.328125 -1.453125 L 21.96875 -5.296875 L 10.0625 -5.296875 L 8.703125 -1.453125 C 8.503906 -0.867188 8.28125 -0.476562 8.03125 -0.28125 C 7.789062 -0.09375 7.398438 0 6.859375 0 L 1.75 0 C 1.226562 0 0.925781 -0.148438 0.84375 -0.453125 C 0.769531 -0.765625 0.796875 -1.066406 0.921875 -1.359375 L 11.71875 -30.46875 C 11.90625 -30.988281 12.148438 -31.367188 12.453125 -31.609375 C 12.765625 -31.847656 13.179688 -31.96875 13.703125 -31.96875 L 18.375 -31.96875 C 18.914062 -31.96875 19.320312 -31.847656 19.59375 -31.609375 C 19.875 -31.367188 20.128906 -30.988281 20.359375 -30.46875 Z M 16.03125 -22.84375 L 12.390625 -12.09375 L 19.6875 -12.09375 Z M 16.03125 -22.84375 "/></g></g></g><g fill="#1e1e1e" fill-opacity="1"><g transform="translate(304.016138, 59.145967)"><g><path d="M 15.890625 -31.96875 C 17.347656 -31.96875 18.835938 -31.75 20.359375 -31.3125 C 21.878906 -30.875 23.285156 -30.21875 24.578125 -29.34375 C 25.878906 -28.46875 26.9375 -27.34375 27.75 -25.96875 C 28.5625 -24.59375 28.96875 -22.953125 28.96875 -21.046875 L 28.96875 -10.9375 C 28.96875 -9.019531 28.5625 -7.375 27.75 -6 C 26.9375 -4.625 25.878906 -3.488281 24.578125 -2.59375 C 23.285156 -1.707031 21.878906 -1.050781 20.359375 -0.625 C 18.835938 -0.207031 17.347656 0 15.890625 0 L 5 0 C 4.445312 0 4.070312 -0.128906 3.875 -0.390625 C 3.6875 -0.648438 3.59375 -0.988281 3.59375 -1.40625 L 3.59375 -30.5625 C 3.59375 -31.019531 3.6875 -31.367188 3.875 -31.609375 C 4.070312 -31.847656 4.445312 -31.96875 5 -31.96875 Z M 21.328125 -20.359375 C 21.328125 -21.878906 20.820312 -23.066406 19.8125 -23.921875 C 18.8125 -24.785156 17.503906 -25.21875 15.890625 -25.21875 L 11.21875 -25.21875 L 11.21875 -6.75 L 15.890625 -6.75 C 17.503906 -6.75 18.8125 -7.171875 19.8125 -8.015625 C 20.820312 -8.859375 21.328125 -10.054688 21.328125 -11.609375 Z M 21.328125 -20.359375 "/></g></g></g><g fill="#1e1e1e" fill-opacity="1"><g transform="translate(335.598206, 59.145967)"><g><path d="M 26.78125 -6.796875 C 27.320312 -6.796875 27.691406 -6.675781 27.890625 -6.4375 C 28.085938 -6.195312 28.1875 -5.847656 28.1875 -5.390625 L 28.1875 -1.40625 C 28.1875 -0.988281 28.085938 -0.648438 27.890625 -0.390625 C 27.691406 -0.128906 27.320312 0 26.78125 0 L 5 0 C 4.445312 0 4.070312 -0.128906 3.875 -0.390625 C 3.6875 -0.648438 3.59375 -0.988281 3.59375 -1.40625 L 3.59375 -30.5625 C 3.59375 -31.019531 3.6875 -31.367188 3.875 -31.609375 C 4.070312 -31.847656 4.445312 -31.96875 5 -31.96875 L 25.953125 -31.96875 C 26.503906 -31.96875 26.875 -31.847656 27.0625 -31.609375 C 27.257812 -31.367188 27.359375 -31.019531 27.359375 -30.5625 L 27.359375 -26.53125 C 27.359375 -26.113281 27.257812 -25.773438 27.0625 -25.515625 C 26.875 -25.253906 26.503906 -25.125 25.953125 -25.125 L 11.28125 -25.125 L 11.28125 -19.828125 L 24.296875 -19.828125 C 24.847656 -19.828125 25.21875 -19.703125 25.40625 -19.453125 C 25.601562 -19.210938 25.703125 -18.867188 25.703125 -18.421875 L 25.703125 -14.625 C 25.703125 -14.207031 25.601562 -13.867188 25.40625 -13.609375 C 25.21875 -13.347656 24.847656 -13.21875 24.296875 -13.21875 L 11.28125 -13.21875 L 11.28125 -6.796875 Z M 26.78125 -6.796875 "/></g></g></g><g clip-path="url(#463f1363f1)"><path fill="#ef642e" d="M 65.933594 47.265625 C 66.027344 47.171875 66.078125 47.046875 66.078125 46.914062 L 66.078125 38.550781 C 66.078125 38.417969 66.027344 38.292969 65.933594 38.199219 C 65.839844 38.105469 65.714844 38.054688 65.585938 38.054688 L 43.769531 38.125 C 46.265625 35.421875 46.761719 34.871094 46.878906 34.734375 L 59.273438 23.5625 C 59.476562 23.382812 59.496094 23.074219 59.316406 22.867188 L 53.808594 16.574219 C 53.628906 16.367188 53.320312 16.34375 53.113281 16.519531 L 40.328125 27.378906 C 40.25 27.445312 40.167969 27.519531 40.09375 27.597656 C 40.074219 27.617188 39.464844 28.238281 38.429688 29.292969 L 38.183594 10.644531 C 38.179688 10.375 37.957031 10.15625 37.6875 10.15625 L 29.320312 10.15625 C 29.050781 10.15625 28.828125 10.375 28.824219 10.644531 L 28.554688 30.996094 L 15.628906 16.40625 C 15.539062 16.308594 15.417969 16.246094 15.285156 16.238281 C 15.152344 16.230469 15.023438 16.28125 14.925781 16.367188 C 14.925781 16.367188 7.3125 23.332031 7.265625 23.378906 C 7.15625 23.476562 7.097656 23.617188 7.105469 23.765625 C 7.109375 23.894531 7.164062 24.015625 7.257812 24.105469 C 7.523438 24.375 14.039062 31.285156 20.339844 37.964844 L 20.558594 38.195312 L 1.988281 38.253906 C 1.714844 38.253906 1.496094 38.476562 1.496094 38.75 L 1.496094 46.710938 C 1.496094 46.984375 1.714844 47.207031 1.988281 47.207031 L 20.78125 47.265625 L 13.644531 54.535156 C 9.847656 58.40625 7.1875 61.113281 7.160156 61.140625 C 7.070312 61.234375 7.015625 61.363281 7.019531 61.496094 C 7.023438 61.628906 7.078125 61.753906 7.171875 61.84375 L 13.421875 67.804688 C 13.972656 68.328125 14.289062 68.628906 14.488281 68.804688 C 14.507812 68.835938 14.539062 68.871094 14.574219 68.90625 C 14.652344 68.980469 14.738281 69.019531 14.832031 69.039062 C 14.84375 69.042969 14.851562 69.042969 14.859375 69.042969 C 15.003906 69.0625 15.160156 69.011719 15.273438 68.898438 C 15.285156 68.886719 15.296875 68.871094 15.308594 68.855469 C 15.609375 68.523438 19.914062 63.878906 24.878906 58.519531 L 28.234375 54.898438 L 27.976562 74.238281 C 27.976562 74.371094 28.027344 74.5 28.121094 74.59375 C 28.214844 74.6875 28.34375 74.742188 28.472656 74.742188 L 38.53125 74.742188 C 38.664062 74.742188 38.789062 74.691406 38.882812 74.59375 C 38.976562 74.5 39.027344 74.371094 39.027344 74.238281 L 38.796875 57.007812 L 52.871094 69.128906 C 53.078125 69.304688 53.386719 69.285156 53.566406 69.082031 L 59.125 62.832031 C 59.308594 62.628906 59.289062 62.320312 59.089844 62.136719 C 59.089844 62.136719 44.054688 48.332031 43.308594 47.648438 C 43.269531 47.601562 43.164062 47.484375 43.035156 47.339844 L 65.585938 47.410156 C 65.722656 47.410156 65.84375 47.359375 65.933594 47.265625 Z M 65.933594 47.265625 " fill-opacity="1" fill-rule="nonzero"/></g></svg>