<svg xmlns="http://www.w3.org/2000/svg" xmlns:xlink="http://www.w3.org/1999/xlink" width="500" zoomAndPan="magnify" viewBox="0 0 375 187.499995" height="250" preserveAspectRatio="xMidYMid meet" version="1.0"><defs><g/><clipPath id="7dfbe06fd6"><path d="M 5.398438 60.210938 L 70.476562 60.210938 L 70.476562 125.289062 L 5.398438 125.289062 Z M 5.398438 60.210938 " clip-rule="nonzero"/></clipPath></defs><g fill="#1e1e1e" fill-opacity="1"><g transform="translate(59.900915, 109.483039)"><g><path d="M 27.515625 -17.9375 C 28.066406 -17.9375 28.4375 -17.8125 28.625 -17.5625 C 28.820312 -17.320312 28.921875 -16.972656 28.921875 -16.515625 L 28.921875 -9.4375 C 28.828125 -7.675781 28.351562 -6.148438 27.5 -4.859375 C 26.65625 -3.578125 25.582031 -2.523438 24.28125 -1.703125 C 22.976562 -0.890625 21.582031 -0.28125 20.09375 0.125 C 18.613281 0.53125 17.175781 0.734375 15.78125 0.734375 C 14.34375 0.734375 12.859375 0.535156 11.328125 0.140625 C 9.796875 -0.242188 8.367188 -0.851562 7.046875 -1.6875 C 5.734375 -2.519531 4.671875 -3.609375 3.859375 -4.953125 C 3.046875 -6.304688 2.640625 -7.945312 2.640625 -9.875 L 2.640625 -21.890625 C 2.640625 -23.804688 3.046875 -25.460938 3.859375 -26.859375 C 4.671875 -28.265625 5.734375 -29.40625 7.046875 -30.28125 C 8.367188 -31.164062 9.796875 -31.816406 11.328125 -32.234375 C 12.859375 -32.660156 14.34375 -32.875 15.78125 -32.875 C 17.3125 -32.875 18.847656 -32.65625 20.390625 -32.21875 C 21.941406 -31.78125 23.359375 -31.132812 24.640625 -30.28125 C 25.929688 -29.4375 26.96875 -28.390625 27.75 -27.140625 C 28.53125 -25.890625 28.921875 -24.445312 28.921875 -22.8125 C 28.921875 -22.226562 28.820312 -21.851562 28.625 -21.6875 C 28.4375 -21.53125 28.066406 -21.453125 27.515625 -21.453125 L 22.765625 -21.453125 C 22.085938 -21.453125 21.710938 -21.644531 21.640625 -22.03125 C 21.578125 -22.425781 21.476562 -22.785156 21.34375 -23.109375 C 21.082031 -23.859375 20.492188 -24.539062 19.578125 -25.15625 C 18.671875 -25.78125 17.40625 -26.09375 15.78125 -26.09375 C 14.1875 -26.09375 12.890625 -25.601562 11.890625 -24.625 C 10.898438 -23.644531 10.40625 -22.375 10.40625 -20.8125 L 10.40625 -11 C 10.40625 -9.425781 10.898438 -8.207031 11.890625 -7.34375 C 12.890625 -6.488281 14.1875 -6.0625 15.78125 -6.0625 C 17.375 -6.0625 18.675781 -6.457031 19.6875 -7.25 C 20.695312 -8.050781 21.203125 -9.394531 21.203125 -11.28125 L 16.8125 -11.28125 C 16.257812 -11.28125 15.882812 -11.410156 15.6875 -11.671875 C 15.488281 -11.929688 15.390625 -12.273438 15.390625 -12.703125 L 15.390625 -16.515625 C 15.390625 -16.972656 15.488281 -17.320312 15.6875 -17.5625 C 15.882812 -17.8125 16.257812 -17.9375 16.8125 -17.9375 Z M 27.515625 -17.9375 "/></g></g></g><g fill="#1e1e1e" fill-opacity="1"><g transform="translate(91.468207, 109.483039)"><g><path d="M 31.265625 -1.375 C 31.398438 -1.070312 31.429688 -0.765625 31.359375 -0.453125 C 31.296875 -0.148438 30.988281 0 30.4375 0 L 25.3125 0 C 24.789062 0 24.398438 -0.0976562 24.140625 -0.296875 C 23.878906 -0.492188 23.648438 -0.882812 23.453125 -1.46875 L 22.078125 -5.328125 L 10.109375 -5.328125 L 8.75 -1.46875 C 8.550781 -0.882812 8.328125 -0.492188 8.078125 -0.296875 C 7.835938 -0.0976562 7.441406 0 6.890625 0 L 1.765625 0 C 1.242188 0 0.941406 -0.148438 0.859375 -0.453125 C 0.773438 -0.765625 0.796875 -1.070312 0.921875 -1.375 L 11.78125 -30.640625 C 11.96875 -31.160156 12.21875 -31.539062 12.53125 -31.78125 C 12.84375 -32.03125 13.257812 -32.15625 13.78125 -32.15625 L 18.46875 -32.15625 C 19.019531 -32.15625 19.429688 -32.03125 19.703125 -31.78125 C 19.984375 -31.539062 20.238281 -31.160156 20.46875 -30.640625 Z M 16.125 -22.96875 L 12.453125 -12.171875 L 19.78125 -12.171875 Z M 16.125 -22.96875 "/></g></g></g><g fill="#1e1e1e" fill-opacity="1"><g transform="translate(121.422865, 109.483039)"><g><path d="M 25.359375 -32.15625 C 25.910156 -32.15625 26.285156 -32.03125 26.484375 -31.78125 C 26.679688 -31.539062 26.78125 -31.191406 26.78125 -30.734375 L 26.78125 -26.671875 C 26.78125 -26.253906 26.679688 -25.914062 26.484375 -25.65625 C 26.285156 -25.394531 25.910156 -25.265625 25.359375 -25.265625 L 17.875 -25.265625 L 17.875 -1.421875 C 17.875 -0.867188 17.753906 -0.492188 17.515625 -0.296875 C 17.273438 -0.0976562 16.925781 0 16.46875 0 L 11.625 0 C 11.207031 0 10.867188 -0.0976562 10.609375 -0.296875 C 10.347656 -0.492188 10.21875 -0.867188 10.21875 -1.421875 L 10.21875 -25.265625 L 2.6875 -25.265625 C 2.132812 -25.265625 1.757812 -25.394531 1.5625 -25.65625 C 1.363281 -25.914062 1.265625 -26.253906 1.265625 -26.671875 L 1.265625 -30.734375 C 1.265625 -31.191406 1.363281 -31.539062 1.5625 -31.78125 C 1.757812 -32.03125 2.132812 -32.15625 2.6875 -32.15625 Z M 25.359375 -32.15625 "/></g></g></g><g fill="#1e1e1e" fill-opacity="1"><g transform="translate(149.471818, 109.483039)"><g><path d="M 28.875 -10.3125 C 28.875 -8.382812 28.46875 -6.71875 27.65625 -5.3125 C 26.84375 -3.914062 25.785156 -2.769531 24.484375 -1.875 C 23.179688 -0.976562 21.765625 -0.320312 20.234375 0.09375 C 18.703125 0.519531 17.203125 0.734375 15.734375 0.734375 C 14.265625 0.734375 12.769531 0.519531 11.25 0.09375 C 9.738281 -0.320312 8.332031 -0.976562 7.03125 -1.875 C 5.726562 -2.769531 4.675781 -3.914062 3.875 -5.3125 C 3.082031 -6.71875 2.6875 -8.382812 2.6875 -10.3125 L 2.6875 -21.84375 C 2.6875 -23.757812 3.082031 -25.414062 3.875 -26.8125 C 4.675781 -28.21875 5.726562 -29.367188 7.03125 -30.265625 C 8.332031 -31.160156 9.738281 -31.816406 11.25 -32.234375 C 12.769531 -32.660156 14.265625 -32.875 15.734375 -32.875 C 17.203125 -32.875 18.703125 -32.660156 20.234375 -32.234375 C 21.765625 -31.816406 23.179688 -31.160156 24.484375 -30.265625 C 25.785156 -29.367188 26.84375 -28.21875 27.65625 -26.8125 C 28.46875 -25.414062 28.875 -23.757812 28.875 -21.84375 Z M 21.203125 -21.15625 C 21.203125 -22.71875 20.695312 -23.929688 19.6875 -24.796875 C 18.675781 -25.660156 17.359375 -26.09375 15.734375 -26.09375 C 14.140625 -26.09375 12.835938 -25.660156 11.828125 -24.796875 C 10.816406 -23.929688 10.3125 -22.71875 10.3125 -21.15625 L 10.3125 -11 C 10.3125 -9.425781 10.816406 -8.207031 11.828125 -7.34375 C 12.835938 -6.488281 14.140625 -6.0625 15.734375 -6.0625 C 17.359375 -6.0625 18.675781 -6.488281 19.6875 -7.34375 C 20.695312 -8.207031 21.203125 -9.425781 21.203125 -11 Z M 21.203125 -21.15625 "/></g></g></g><g fill="#1e1e1e" fill-opacity="1"><g transform="translate(180.990248, 109.483039)"><g><path d="M 29.953125 -1.5625 C 30.179688 -1.238281 30.226562 -0.894531 30.09375 -0.53125 C 29.96875 -0.175781 29.675781 0 29.21875 0 L 23.453125 0 C 22.867188 0 22.40625 -0.113281 22.0625 -0.34375 C 21.71875 -0.570312 21.367188 -0.945312 21.015625 -1.46875 L 15.734375 -9.328125 C 15.503906 -9.617188 15.351562 -9.9375 15.28125 -10.28125 C 15.21875 -10.625 15.1875 -11.140625 15.1875 -11.828125 L 15.1875 -15.734375 C 15.1875 -16.191406 15.285156 -16.539062 15.484375 -16.78125 C 15.679688 -17.03125 16.054688 -17.15625 16.609375 -17.15625 L 17.59375 -17.15625 C 18.789062 -17.15625 19.863281 -17.523438 20.8125 -18.265625 C 21.757812 -19.015625 22.234375 -19.960938 22.234375 -21.109375 C 22.234375 -22.378906 21.800781 -23.390625 20.9375 -24.140625 C 20.070312 -24.890625 19.003906 -25.265625 17.734375 -25.265625 L 11.234375 -25.265625 L 11.234375 -1.421875 C 11.234375 -0.867188 11.109375 -0.492188 10.859375 -0.296875 C 10.617188 -0.0976562 10.273438 0 9.828125 0 L 4.984375 0 C 4.554688 0 4.21875 -0.0976562 3.96875 -0.296875 C 3.726562 -0.492188 3.609375 -0.867188 3.609375 -1.421875 L 3.609375 -30.6875 C 3.609375 -31.144531 3.695312 -31.492188 3.875 -31.734375 C 4.0625 -31.972656 4.429688 -32.09375 4.984375 -32.09375 L 17.296875 -32.09375 C 19.085938 -32.09375 20.566406 -31.976562 21.734375 -31.75 C 22.910156 -31.53125 23.914062 -31.179688 24.75 -30.703125 C 25.582031 -30.234375 26.335938 -29.65625 27.015625 -28.96875 C 27.929688 -28.09375 28.632812 -26.984375 29.125 -25.640625 C 29.613281 -24.304688 29.859375 -22.859375 29.859375 -21.296875 C 29.859375 -19.609375 29.5 -18.09375 28.78125 -16.75 C 28.0625 -15.414062 27.179688 -14.304688 26.140625 -13.421875 C 25.097656 -12.546875 24.070312 -11.929688 23.0625 -11.578125 Z M 29.953125 -1.5625 "/></g></g></g><g fill="#1e1e1e" fill-opacity="1"><g transform="translate(213.534858, 109.483039)"><g><path d="M 27.515625 -17.9375 C 28.066406 -17.9375 28.4375 -17.8125 28.625 -17.5625 C 28.820312 -17.320312 28.921875 -16.972656 28.921875 -16.515625 L 28.921875 -9.4375 C 28.828125 -7.675781 28.351562 -6.148438 27.5 -4.859375 C 26.65625 -3.578125 25.582031 -2.523438 24.28125 -1.703125 C 22.976562 -0.890625 21.582031 -0.28125 20.09375 0.125 C 18.613281 0.53125 17.175781 0.734375 15.78125 0.734375 C 14.34375 0.734375 12.859375 0.535156 11.328125 0.140625 C 9.796875 -0.242188 8.367188 -0.851562 7.046875 -1.6875 C 5.734375 -2.519531 4.671875 -3.609375 3.859375 -4.953125 C 3.046875 -6.304688 2.640625 -7.945312 2.640625 -9.875 L 2.640625 -21.890625 C 2.640625 -23.804688 3.046875 -25.460938 3.859375 -26.859375 C 4.671875 -28.265625 5.734375 -29.40625 7.046875 -30.28125 C 8.367188 -31.164062 9.796875 -31.816406 11.328125 -32.234375 C 12.859375 -32.660156 14.34375 -32.875 15.78125 -32.875 C 17.3125 -32.875 18.847656 -32.65625 20.390625 -32.21875 C 21.941406 -31.78125 23.359375 -31.132812 24.640625 -30.28125 C 25.929688 -29.4375 26.96875 -28.390625 27.75 -27.140625 C 28.53125 -25.890625 28.921875 -24.445312 28.921875 -22.8125 C 28.921875 -22.226562 28.820312 -21.851562 28.625 -21.6875 C 28.4375 -21.53125 28.066406 -21.453125 27.515625 -21.453125 L 22.765625 -21.453125 C 22.085938 -21.453125 21.710938 -21.644531 21.640625 -22.03125 C 21.578125 -22.425781 21.476562 -22.785156 21.34375 -23.109375 C 21.082031 -23.859375 20.492188 -24.539062 19.578125 -25.15625 C 18.671875 -25.78125 17.40625 -26.09375 15.78125 -26.09375 C 14.1875 -26.09375 12.890625 -25.601562 11.890625 -24.625 C 10.898438 -23.644531 10.40625 -22.375 10.40625 -20.8125 L 10.40625 -11 C 10.40625 -9.425781 10.898438 -8.207031 11.890625 -7.34375 C 12.890625 -6.488281 14.1875 -6.0625 15.78125 -6.0625 C 17.375 -6.0625 18.675781 -6.457031 19.6875 -7.25 C 20.695312 -8.050781 21.203125 -9.394531 21.203125 -11.28125 L 16.8125 -11.28125 C 16.257812 -11.28125 15.882812 -11.410156 15.6875 -11.671875 C 15.488281 -11.929688 15.390625 -12.273438 15.390625 -12.703125 L 15.390625 -16.515625 C 15.390625 -16.972656 15.488281 -17.320312 15.6875 -17.5625 C 15.882812 -17.8125 16.257812 -17.9375 16.8125 -17.9375 Z M 27.515625 -17.9375 "/></g></g></g><g fill="#1e1e1e" fill-opacity="1"><g transform="translate(245.10215, 109.483039)"><g><path d="M 29.953125 -1.5625 C 30.179688 -1.238281 30.226562 -0.894531 30.09375 -0.53125 C 29.96875 -0.175781 29.675781 0 29.21875 0 L 23.453125 0 C 22.867188 0 22.40625 -0.113281 22.0625 -0.34375 C 21.71875 -0.570312 21.367188 -0.945312 21.015625 -1.46875 L 15.734375 -9.328125 C 15.503906 -9.617188 15.351562 -9.9375 15.28125 -10.28125 C 15.21875 -10.625 15.1875 -11.140625 15.1875 -11.828125 L 15.1875 -15.734375 C 15.1875 -16.191406 15.285156 -16.539062 15.484375 -16.78125 C 15.679688 -17.03125 16.054688 -17.15625 16.609375 -17.15625 L 17.59375 -17.15625 C 18.789062 -17.15625 19.863281 -17.523438 20.8125 -18.265625 C 21.757812 -19.015625 22.234375 -19.960938 22.234375 -21.109375 C 22.234375 -22.378906 21.800781 -23.390625 20.9375 -24.140625 C 20.070312 -24.890625 19.003906 -25.265625 17.734375 -25.265625 L 11.234375 -25.265625 L 11.234375 -1.421875 C 11.234375 -0.867188 11.109375 -0.492188 10.859375 -0.296875 C 10.617188 -0.0976562 10.273438 0 9.828125 0 L 4.984375 0 C 4.554688 0 4.21875 -0.0976562 3.96875 -0.296875 C 3.726562 -0.492188 3.609375 -0.867188 3.609375 -1.421875 L 3.609375 -30.6875 C 3.609375 -31.144531 3.695312 -31.492188 3.875 -31.734375 C 4.0625 -31.972656 4.429688 -32.09375 4.984375 -32.09375 L 17.296875 -32.09375 C 19.085938 -32.09375 20.566406 -31.976562 21.734375 -31.75 C 22.910156 -31.53125 23.914062 -31.179688 24.75 -30.703125 C 25.582031 -30.234375 26.335938 -29.65625 27.015625 -28.96875 C 27.929688 -28.09375 28.632812 -26.984375 29.125 -25.640625 C 29.613281 -24.304688 29.859375 -22.859375 29.859375 -21.296875 C 29.859375 -19.609375 29.5 -18.09375 28.78125 -16.75 C 28.0625 -15.414062 27.179688 -14.304688 26.140625 -13.421875 C 25.097656 -12.546875 24.070312 -11.929688 23.0625 -11.578125 Z M 29.953125 -1.5625 "/></g></g></g><g fill="#1e1e1e" fill-opacity="1"><g transform="translate(277.64676, 109.483039)"><g><path d="M 31.265625 -1.375 C 31.398438 -1.070312 31.429688 -0.765625 31.359375 -0.453125 C 31.296875 -0.148438 30.988281 0 30.4375 0 L 25.3125 0 C 24.789062 0 24.398438 -0.0976562 24.140625 -0.296875 C 23.878906 -0.492188 23.648438 -0.882812 23.453125 -1.46875 L 22.078125 -5.328125 L 10.109375 -5.328125 L 8.75 -1.46875 C 8.550781 -0.882812 8.328125 -0.492188 8.078125 -0.296875 C 7.835938 -0.0976562 7.441406 0 6.890625 0 L 1.765625 0 C 1.242188 0 0.941406 -0.148438 0.859375 -0.453125 C 0.773438 -0.765625 0.796875 -1.070312 0.921875 -1.375 L 11.78125 -30.640625 C 11.96875 -31.160156 12.21875 -31.539062 12.53125 -31.78125 C 12.84375 -32.03125 13.257812 -32.15625 13.78125 -32.15625 L 18.46875 -32.15625 C 19.019531 -32.15625 19.429688 -32.03125 19.703125 -31.78125 C 19.984375 -31.539062 20.238281 -31.160156 20.46875 -30.640625 Z M 16.125 -22.96875 L 12.453125 -12.171875 L 19.78125 -12.171875 Z M 16.125 -22.96875 "/></g></g></g><g fill="#1e1e1e" fill-opacity="1"><g transform="translate(309.653843, 109.483039)"><g><path d="M 15.984375 -32.15625 C 17.441406 -32.15625 18.9375 -31.929688 20.46875 -31.484375 C 22 -31.046875 23.414062 -30.382812 24.71875 -29.5 C 26.019531 -28.625 27.078125 -27.492188 27.890625 -26.109375 C 28.710938 -24.722656 29.125 -23.070312 29.125 -21.15625 L 29.125 -11 C 29.125 -9.070312 28.710938 -7.414062 27.890625 -6.03125 C 27.078125 -4.644531 26.019531 -3.503906 24.71875 -2.609375 C 23.414062 -1.710938 22 -1.050781 20.46875 -0.625 C 18.9375 -0.207031 17.441406 0 15.984375 0 L 5.03125 0 C 4.476562 0 4.101562 -0.128906 3.90625 -0.390625 C 3.707031 -0.648438 3.609375 -0.992188 3.609375 -1.421875 L 3.609375 -30.734375 C 3.609375 -31.191406 3.707031 -31.539062 3.90625 -31.78125 C 4.101562 -32.03125 4.476562 -32.15625 5.03125 -32.15625 Z M 21.453125 -20.46875 C 21.453125 -22 20.945312 -23.195312 19.9375 -24.0625 C 18.925781 -24.925781 17.609375 -25.359375 15.984375 -25.359375 L 11.28125 -25.359375 L 11.28125 -6.796875 L 15.984375 -6.796875 C 17.609375 -6.796875 18.925781 -7.21875 19.9375 -8.0625 C 20.945312 -8.90625 21.453125 -10.109375 21.453125 -11.671875 Z M 21.453125 -20.46875 "/></g></g></g><g fill="#1e1e1e" fill-opacity="1"><g transform="translate(341.416605, 109.483039)"><g><path d="M 26.921875 -6.84375 C 27.472656 -6.84375 27.847656 -6.71875 28.046875 -6.46875 C 28.242188 -6.226562 28.34375 -5.878906 28.34375 -5.421875 L 28.34375 -1.421875 C 28.34375 -0.992188 28.242188 -0.648438 28.046875 -0.390625 C 27.847656 -0.128906 27.472656 0 26.921875 0 L 5.03125 0 C 4.476562 0 4.101562 -0.128906 3.90625 -0.390625 C 3.707031 -0.648438 3.609375 -0.992188 3.609375 -1.421875 L 3.609375 -30.734375 C 3.609375 -31.191406 3.707031 -31.539062 3.90625 -31.78125 C 4.101562 -32.03125 4.476562 -32.15625 5.03125 -32.15625 L 26.09375 -32.15625 C 26.644531 -32.15625 27.019531 -32.03125 27.21875 -31.78125 C 27.414062 -31.539062 27.515625 -31.191406 27.515625 -30.734375 L 27.515625 -26.671875 C 27.515625 -26.253906 27.414062 -25.914062 27.21875 -25.65625 C 27.019531 -25.394531 26.644531 -25.265625 26.09375 -25.265625 L 11.328125 -25.265625 L 11.328125 -19.9375 L 24.421875 -19.9375 C 24.984375 -19.9375 25.359375 -19.8125 25.546875 -19.5625 C 25.742188 -19.320312 25.84375 -18.972656 25.84375 -18.515625 L 25.84375 -14.703125 C 25.84375 -14.285156 25.742188 -13.945312 25.546875 -13.6875 C 25.359375 -13.425781 24.984375 -13.296875 24.421875 -13.296875 L 11.328125 -13.296875 L 11.328125 -6.84375 Z M 26.921875 -6.84375 "/></g></g></g><g clip-path="url(#7dfbe06fd6)"><path fill="#ef642e" d="M 70.210938 97.535156 C 70.304688 97.441406 70.355469 97.3125 70.355469 97.183594 L 70.355469 88.769531 C 70.355469 88.636719 70.304688 88.507812 70.210938 88.414062 C 70.113281 88.324219 69.988281 88.269531 69.859375 88.269531 L 47.917969 88.339844 C 50.429688 85.621094 50.929688 85.066406 51.046875 84.929688 L 63.511719 73.695312 C 63.714844 73.515625 63.734375 73.203125 63.554688 73 L 58.015625 66.664062 C 57.835938 66.460938 57.523438 66.4375 57.316406 66.613281 L 44.457031 77.535156 C 44.378906 77.601562 44.296875 77.675781 44.222656 77.753906 C 44.199219 77.773438 43.589844 78.398438 42.550781 79.457031 L 42.300781 60.703125 C 42.296875 60.433594 42.074219 60.214844 41.800781 60.214844 L 33.386719 60.214844 C 33.117188 60.214844 32.890625 60.433594 32.890625 60.703125 L 32.617188 81.171875 L 19.617188 66.5 C 19.527344 66.398438 19.402344 66.339844 19.269531 66.332031 C 19.140625 66.320312 19.007812 66.371094 18.910156 66.460938 C 18.910156 66.460938 11.253906 73.464844 11.203125 73.511719 C 11.09375 73.609375 11.035156 73.75 11.042969 73.902344 C 11.046875 74.03125 11.105469 74.152344 11.199219 74.242188 C 11.464844 74.511719 18.015625 81.460938 24.355469 88.179688 L 24.574219 88.414062 L 5.898438 88.472656 C 5.621094 88.472656 5.402344 88.695312 5.402344 88.972656 L 5.402344 96.976562 C 5.402344 97.25 5.621094 97.476562 5.898438 97.476562 L 24.796875 97.535156 L 17.621094 104.847656 C 13.800781 108.738281 11.125 111.460938 11.101562 111.488281 C 11.007812 111.582031 10.957031 111.710938 10.957031 111.84375 C 10.960938 111.980469 11.015625 112.105469 11.113281 112.195312 L 17.398438 118.191406 C 17.949219 118.714844 18.269531 119.019531 18.46875 119.195312 C 18.492188 119.230469 18.519531 119.265625 18.558594 119.300781 C 18.632812 119.371094 18.722656 119.414062 18.816406 119.433594 C 18.828125 119.433594 18.835938 119.433594 18.84375 119.433594 C 18.988281 119.453125 19.144531 119.40625 19.257812 119.289062 C 19.269531 119.277344 19.285156 119.261719 19.296875 119.246094 C 19.597656 118.914062 23.925781 114.246094 28.921875 108.851562 L 32.296875 105.210938 L 32.035156 124.664062 C 32.035156 124.792969 32.085938 124.925781 32.179688 125.019531 C 32.277344 125.113281 32.402344 125.167969 32.535156 125.167969 L 42.648438 125.167969 C 42.785156 125.167969 42.910156 125.117188 43.003906 125.019531 C 43.097656 124.925781 43.148438 124.792969 43.148438 124.664062 L 42.917969 107.332031 L 57.074219 119.523438 C 57.28125 119.703125 57.589844 119.683594 57.769531 119.476562 L 63.363281 113.1875 C 63.542969 112.984375 63.527344 112.675781 63.328125 112.492188 C 63.328125 112.492188 48.207031 98.609375 47.453125 97.921875 C 47.414062 97.871094 47.308594 97.753906 47.179688 97.609375 L 69.859375 97.679688 C 69.996094 97.679688 70.117188 97.628906 70.210938 97.535156 Z M 70.210938 97.535156 " fill-opacity="1" fill-rule="nonzero"/></g></svg>